<svg xmlns="http://www.w3.org/2000/svg" width="256" height="256" viewBox="0 0 256 256"><rect width="256" height="256" rx="56" fill="#0F172A"/><path fill="#fff" d="M128 56c-40 0-72 33-72 73 0 32 21 60 49 69 4 1 6-2 6-4v-18c-20 4-24-9-24-9-4-9-10-12-10-12-8-6 1-6 1-6 9 1 14 9 14 9 8 14 22 10 28 8 1-6 4-10 7-12-18-2-37-9-37-41 0-9 3-17 9-23-1-2-4-11 1-23 0 0 7-2 24 9 7-2 15-3 23-3s16 1 23 3c17-11 24-9 24-9 5 12 2 21 1 23 6 6 9 14 9 23 0 32-19 39-37 41 4 3 8 10 8 20v30c0 2 2 5 6 4 28-9 49-37 49-69 0-40-32-73-72-73z"/></svg>