<svg xmlns="http://www.w3.org/2000/svg" width="256" height="256" viewBox="0 0 256 256"><rect width="256" height="256" rx="40" fill="#111827"/><g><path fill="#36C5F0" d="M96 112a16 16 0 1 1-16-16h16v16z"/><path fill="#2EB67D" d="M104 96a16 16 0 1 1 16-16v16h-16z"/><path fill="#ECB22E" d="M144 104a16 16 0 1 1 16-16v16h-16z"/><path fill="#E01E5A" d="M160 144a16 16 0 1 1 16-16h-16v16z"/><path fill="#36C5F0" d="M112 160a16 16 0 1 1 16-16v16h-16z"/><path fill="#2EB67D" d="M96 144a16 16 0 1 1-16 16v-16h16z"/><path fill="#ECB22E" d="M152 160a16 16 0 1 1-16 16v-16h16z"/><path fill="#E01E5A" d="M160 96a16 16 0 1 1-16-16h16v16z"/></g></svg>