<svg xmlns="http://www.w3.org/2000/svg" width="96" height="96" viewBox="0 0 96 96" fill="none">
  <rect width="96" height="96" rx="24" fill="#E11D48"/>
  <path d="M36 40C36 35.582 39.582 32 44 32H52C56.418 32 60 35.582 60 40C60 44.418 56.418 48 52 48H46C43.791 48 42 49.791 42 52C42 54.209 43.791 56 46 56H52C56.418 56 60 59.582 60 64C60 68.418 56.418 72 52 72H44C39.582 72 36 68.418 36 64C36 59.582 39.582 56 44 56H50C52.209 56 54 54.209 54 52C54 49.791 52.209 48 50 48H44C39.582 48 36 44.418 36 40Z" fill="#FFFFFF"/>
</svg>